<?xml version="1.0" encoding="UTF-8"?>
<svg width="32px" height="32px" viewBox="0 0 32 32" version="1.1" xmlns="http://www.w3.org/2000/svg" xmlns:xlink="http://www.w3.org/1999/xlink">
    <title>icon/logo</title>
    <g id="icon/logo" stroke="none" stroke-width="1" fill="none" fill-rule="evenodd">
        <g id="Lv1/logo">
            <circle fill="#4CB3F8" cx="16" cy="16" r="16"></circle>
            <path d="M16.264,24.288 C14.76,24.288 13.332,24.056 11.98,23.592 C10.628,23.128 9.432,22.432 8.392,21.504 L10.984,18.408 C12.664,19.752 14.48,20.424 16.432,20.424 C17.056,20.424 17.532,20.324 17.86,20.124 C18.188,19.924 18.352,19.64 18.352,19.272 L18.352,19.224 C18.352,19.048 18.312,18.892 18.232,18.756 C18.152,18.62 18.004,18.488 17.788,18.36 C17.572,18.232 17.284,18.108 16.924,17.988 C16.564,17.868 16.096,17.744 15.52,17.616 C14.624,17.408 13.792,17.18 13.024,16.932 C12.256,16.684 11.588,16.364 11.02,15.972 C10.452,15.58 10.004,15.092 9.676,14.508 C9.348,13.924 9.184,13.2 9.184,12.336 L9.184,12.288 C9.184,11.504 9.332,10.784 9.628,10.128 C9.924,9.472 10.356,8.904 10.924,8.424 C11.492,7.944 12.176,7.572 12.976,7.308 C13.776,7.044 14.68,6.912 15.688,6.912 C17.128,6.912 18.412,7.1 19.54,7.476 C20.668,7.852 21.688,8.408 22.6,9.144 L20.272,12.432 C19.504,11.888 18.716,11.476 17.908,11.196 C17.1,10.916 16.32,10.776 15.568,10.776 C15.008,10.776 14.588,10.88 14.308,11.088 C14.028,11.296 13.888,11.552 13.888,11.856 L13.888,11.904 C13.888,12.096 13.932,12.264 14.02,12.408 C14.108,12.552 14.26,12.684 14.476,12.804 C14.692,12.924 14.988,13.044 15.364,13.164 C15.74,13.284 16.216,13.408 16.792,13.536 C17.752,13.744 18.62,13.988 19.396,14.268 C20.172,14.548 20.832,14.888 21.376,15.288 C21.92,15.688 22.336,16.172 22.624,16.74 C22.912,17.308 23.056,17.984 23.056,18.768 L23.056,18.816 C23.056,19.68 22.892,20.448 22.564,21.12 C22.236,21.792 21.776,22.364 21.184,22.836 C20.592,23.308 19.88,23.668 19.048,23.916 C18.216,24.164 17.288,24.288 16.264,24.288 Z" id="S" fill="#FFFFFF" fill-rule="nonzero"></path>
        </g>
    </g>
</svg>